<?xml version="1.0" encoding="UTF-8" standalone="no"?>
<svg
   xmlns:osb="http://www.openswatchbook.org/uri/2009/osb"
   xmlns:dc="http://purl.org/dc/elements/1.1/"
   xmlns:cc="http://creativecommons.org/ns#"
   xmlns:rdf="http://www.w3.org/1999/02/22-rdf-syntax-ns#"
   xmlns:svg="http://www.w3.org/2000/svg"
   xmlns="http://www.w3.org/2000/svg"
   xmlns:xlink="http://www.w3.org/1999/xlink"
   xmlns:sodipodi="http://sodipodi.sourceforge.net/DTD/sodipodi-0.dtd"
   xmlns:inkscape="http://www.inkscape.org/namespaces/inkscape"
   width="210mm"
   height="297mm"
   viewBox="0 0 210 297"
   version="1.1"
   id="svg8"
   inkscape:version="1.0.2-2 (e86c870879, 2021-01-15)"
   sodipodi:docname="Car.svg"
   inkscape:export-filename="C:\Users\Nathan\Documents\LDJam\Originals\Cloud.png"
   inkscape:export-xdpi="8.7241402"
   inkscape:export-ydpi="8.7241402">
  <defs
     id="defs2">
    <linearGradient
       inkscape:collect="always"
       id="linearGradient3164">
      <stop
         style="stop-color:#38f2f2;stop-opacity:1"
         offset="0"
         id="stop3160" />
      <stop
         style="stop-color:#c1fbfb;stop-opacity:1"
         offset="1"
         id="stop3162" />
    </linearGradient>
    <linearGradient
       inkscape:collect="always"
       id="linearGradient3158">
      <stop
         style="stop-color:#38f2f2;stop-opacity:1"
         offset="0"
         id="stop3154" />
      <stop
         style="stop-color:#c1fbfb;stop-opacity:1"
         offset="1"
         id="stop3156" />
    </linearGradient>
    <linearGradient
       inkscape:collect="always"
       id="linearGradient2939">
      <stop
         style="stop-color:#e80000;stop-opacity:1"
         offset="0"
         id="stop2935" />
      <stop
         style="stop-color:#630000;stop-opacity:1"
         offset="1"
         id="stop2937" />
    </linearGradient>
    <linearGradient
       id="linearGradient2879"
       osb:paint="solid">
      <stop
         style="stop-color:#cd2020;stop-opacity:1;"
         offset="0"
         id="stop2877" />
    </linearGradient>
    <pattern
       id="EMFhbasepattern"
       patternUnits="userSpaceOnUse"
       width="6"
       height="6"
       x="0"
       y="0" />
    <linearGradient
       inkscape:collect="always"
       xlink:href="#linearGradient2939"
       id="linearGradient2941"
       x1="27.303747"
       y1="26.409608"
       x2="64.078255"
       y2="26.409608"
       gradientUnits="userSpaceOnUse" />
    <radialGradient
       inkscape:collect="always"
       xlink:href="#linearGradient3164"
       id="radialGradient3093-9"
       cx="42.059525"
       cy="50.15675"
       fx="42.059525"
       fy="50.15675"
       r="4.1422396"
       gradientTransform="matrix(0.73384536,0.99973019,-1.214672,0.89162196,70.225972,-63.258867)"
       gradientUnits="userSpaceOnUse" />
    <radialGradient
       inkscape:collect="always"
       xlink:href="#linearGradient3158"
       id="radialGradient3105-3"
       cx="48.513153"
       cy="48.395844"
       fx="48.513153"
       fy="48.395844"
       r="5.6820297"
       gradientTransform="matrix(1.3645421,0.37042177,-0.16555454,0.60986191,-9.7865322,-24.847047)"
       gradientUnits="userSpaceOnUse" />
  </defs>
  <sodipodi:namedview
     id="base"
     pagecolor="#ffffff"
     bordercolor="#666666"
     borderopacity="1.0"
     inkscape:pageopacity="0.0"
     inkscape:pageshadow="2"
     inkscape:zoom="5.6"
     inkscape:cx="212.31137"
     inkscape:cy="131.24727"
     inkscape:document-units="mm"
     inkscape:current-layer="layer1"
     inkscape:document-rotation="0"
     showgrid="false"
     inkscape:window-width="2005"
     inkscape:window-height="1241"
     inkscape:window-x="437"
     inkscape:window-y="45"
     inkscape:window-maximized="0" />
  <metadata
     id="metadata5">
    <rdf:RDF>
      <cc:Work
         rdf:about="">
        <dc:format>image/svg+xml</dc:format>
        <dc:type
           rdf:resource="http://purl.org/dc/dcmitype/StillImage" />
        <dc:title></dc:title>
      </cc:Work>
    </rdf:RDF>
  </metadata>
  <g
     inkscape:label="Layer 1"
     inkscape:groupmode="layer"
     id="layer1">
    <path
       style="fill:#979797;fill-opacity:0.995968;stroke:#000000;stroke-width:0.264583px;stroke-linecap:butt;stroke-linejoin:miter;stroke-opacity:1"
       d="m 61.380692,32.558346 c 0,0 0.116032,0.689337 0.70156,0.789186 0.335657,0.05724 1.19447,-0.272603 1.239941,-0.40901 0.07517,-0.225506 0.113049,-1.728899 0.113049,-1.728899 0,0 0.01669,-0.868627 -0.88533,-0.927092 -0.902034,-0.05846 -1.403165,0.242213 -1.403165,0.242213 l -0.183213,3.075973 z"
       id="path3081"
       sodipodi:nodetypes="csscsccc" />
    <circle
       style="opacity:1;fill:#979797;fill-opacity:0.995968;stroke:#000000;stroke-width:0.264583;stroke-opacity:1"
       id="path2943"
       cx="28.806643"
       cy="31.67979"
       r="1.7456042" />
    <path
       style="opacity:1;fill:url(#linearGradient2941);fill-opacity:1;stroke:#000000;stroke-width:0.264583px;stroke-linecap:butt;stroke-linejoin:miter;stroke-opacity:1"
       d="m 31.848962,35.994999 30.277365,-0.07863 c -0.04783,-3.087337 -0.104032,-5.714583 -0.230536,-6.410964 -0.137324,-0.728004 -0.372504,-2.262873 -0.72448,-3.279583 -0.471443,-1.361799 -1.046516,-2.495219 -2.125756,-3.768437 -1.411004,-1.664612 -3.07357,-3.173852 -4.841218,-4.093471 -2.860002,-1.487916 -5.579221,-1.658543 -6.730587,-1.592751 -2.338609,0.133635 -5.272945,0.313829 -7.967975,3.340869 -0.787575,0.8846 -0.78395,1.078393 -1.673141,2.454739 -0.856735,1.326109 -1.498969,2.003764 -1.751248,3.007582 -0.338096,1.345282 -5.48285,1.411122 -7.088722,3.424391 -0.561025,0.703352 -0.516996,4.255063 -0.516996,4.255063 0,0 -0.900934,-0.244669 -1.013725,1.324189 -0.07517,1.045603 1.348534,1.451932 2.519492,1.410921 0.877914,-0.01545 1.142467,-0.0076 1.867527,0.0061 z"
       id="path2933"
       sodipodi:nodetypes="cccsssssssscsccc" />
    <circle
       style="opacity:1;fill:#494949;fill-opacity:0.99596804;stroke:#000000;stroke-width:0.222971;stroke-opacity:1"
       id="path2965"
       cx="35.947754"
       cy="35.413216"
       r="4.3639355" />
    <circle
       style="opacity:1;fill:#aaaaaa;fill-opacity:0.995968;stroke:#000000;stroke-width:0.249773;stroke-opacity:1"
       id="path2987"
       cx="35.931049"
       cy="35.563553"
       r="2.1288569" />
    <circle
       style="fill:#494949;fill-opacity:0.995968;stroke:#000000;stroke-width:0.222971;stroke-opacity:1"
       id="path2965-9"
       cx="55.558655"
       cy="35.680481"
       r="4.3639355" />
    <circle
       style="fill:#aaaaaa;fill-opacity:0.995968;stroke:#000000;stroke-width:0.249773;stroke-opacity:1"
       id="path2987-7"
       cx="55.54195"
       cy="35.830818"
       r="2.1288569" />
    <path
       style="fill:url(#radialGradient3093-9);fill-opacity:1;stroke:#000000;stroke-width:0.264583px;stroke-linecap:butt;stroke-linejoin:miter;stroke-opacity:1"
       d="m 38.456734,25.210506 h 7.500253 c 0,0 0.467719,0.06682 0.484425,-0.517835 0.01669,-0.584652 -0.11693,-6.214016 -0.11693,-6.214016 0,0 -0.3842,-0.08352 -1.570209,3e-6 -1.839364,0.129536 -4.209495,2.522356 -5.64607,5.178346 -1.041551,1.925658 -0.651469,1.553504 -0.651469,1.553504 z"
       id="path3083-9"
       sodipodi:nodetypes="ccccsscc" />
    <path
       style="fill:url(#radialGradient3105-3);fill-opacity:1;stroke:#000000;stroke-width:0.264583px;stroke-linecap:butt;stroke-linejoin:miter;stroke-opacity:1"
       d="m 47.97821,25.143691 10.891234,-0.05012 c 0,0 -1.971114,-3.290757 -4.443356,-4.844259 -2.758174,-1.733175 -4.576992,-1.95441 -5.863226,-1.921 -0.484426,0.01669 -0.718285,0.05011 -0.718285,0.05011 z"
       id="path3095-2"
       sodipodi:nodetypes="ccsccc" />
  </g>
</svg>
