<?xml version="1.0" encoding="UTF-8" standalone="no"?>
<svg
   xmlns:osb="http://www.openswatchbook.org/uri/2009/osb"
   xmlns:dc="http://purl.org/dc/elements/1.1/"
   xmlns:cc="http://creativecommons.org/ns#"
   xmlns:rdf="http://www.w3.org/1999/02/22-rdf-syntax-ns#"
   xmlns:svg="http://www.w3.org/2000/svg"
   xmlns="http://www.w3.org/2000/svg"
   xmlns:xlink="http://www.w3.org/1999/xlink"
   xmlns:sodipodi="http://sodipodi.sourceforge.net/DTD/sodipodi-0.dtd"
   xmlns:inkscape="http://www.inkscape.org/namespaces/inkscape"
   width="210mm"
   height="297mm"
   viewBox="0 0 210 297"
   version="1.1"
   id="svg8"
   inkscape:version="1.0.2-2 (e86c870879, 2021-01-15)"
   sodipodi:docname="Cloud.svg"
   inkscape:export-filename="C:\Users\Nathan\Documents\LDJam\Originals\Person_Fall_1.png"
   inkscape:export-xdpi="56.88168"
   inkscape:export-ydpi="56.88168">
  <defs
     id="defs2">
    <linearGradient
       inkscape:collect="always"
       id="linearGradient2889">
      <stop
         style="stop-color:#ffffff;stop-opacity:1"
         offset="0"
         id="stop2885" />
      <stop
         style="stop-color:#cafffb;stop-opacity:1"
         offset="1"
         id="stop2887" />
    </linearGradient>
    <linearGradient
       id="linearGradient2879"
       osb:paint="solid">
      <stop
         style="stop-color:#cd2020;stop-opacity:1;"
         offset="0"
         id="stop2877" />
    </linearGradient>
    <pattern
       id="EMFhbasepattern"
       patternUnits="userSpaceOnUse"
       width="6"
       height="6"
       x="0"
       y="0" />
    <radialGradient
       inkscape:collect="always"
       xlink:href="#linearGradient2889"
       id="radialGradient2891"
       cx="62.656998"
       cy="35.484772"
       fx="62.656998"
       fy="35.484772"
       r="46.082946"
       gradientTransform="matrix(0.93773561,-0.34652055,0.14787719,0.40017744,-1.3460884,42.996504)"
       gradientUnits="userSpaceOnUse" />
  </defs>
  <sodipodi:namedview
     id="base"
     pagecolor="#ffffff"
     bordercolor="#666666"
     borderopacity="1.0"
     inkscape:pageopacity="0.0"
     inkscape:pageshadow="2"
     inkscape:zoom="1.4"
     inkscape:cx="289.5661"
     inkscape:cy="287.00572"
     inkscape:document-units="mm"
     inkscape:current-layer="layer1"
     inkscape:document-rotation="0"
     showgrid="false"
     inkscape:window-width="2005"
     inkscape:window-height="1241"
     inkscape:window-x="437"
     inkscape:window-y="45"
     inkscape:window-maximized="0" />
  <metadata
     id="metadata5">
    <rdf:RDF>
      <cc:Work
         rdf:about="">
        <dc:format>image/svg+xml</dc:format>
        <dc:type
           rdf:resource="http://purl.org/dc/dcmitype/StillImage" />
        <dc:title></dc:title>
      </cc:Work>
    </rdf:RDF>
  </metadata>
  <g
     inkscape:label="Layer 1"
     inkscape:groupmode="layer"
     id="layer1">
    <path
       style="fill:url(#radialGradient2891);stroke:#000000;stroke-width:0.264583px;stroke-linecap:butt;stroke-linejoin:miter;stroke-opacity:1;fill-opacity:1"
       d="m 47.074724,25.037745 c -0.167304,0.176341 -0.786805,-0.485938 -1.322917,-0.850443 -0.541491,-0.40612 -1.081109,-0.790681 -1.606396,-1.228424 -1.254972,-1.04581 -2.477471,-2.114798 -3.685271,-3.212798 -0.733078,-0.666435 -1.470755,-1.444083 -2.36235,-1.889879 -0.684972,-0.342487 -2.479551,0.136078 -3.118303,0.283482 -3.081877,0.711203 -7.320216,2.283799 -8.598958,5.480654 -0.642316,1.605788 -0.439526,3.221122 0.566965,4.630208 0.343755,0.481258 0.669933,0.833242 1.228421,0.944941 0.0074,0.0016 0.769472,0.01103 0.377976,0.188989 -1.768732,0.803968 -3.569634,1.560806 -5.197171,2.645833 -0.675047,0.45003 -0.904957,0.742863 -1.511906,1.228421 -2.210644,1.657985 0.519692,-0.445447 -1.322917,1.13393 -0.837017,0.717444 -0.69992,0.380479 -1.41741,1.228421 -1.507418,1.781495 -2.822691,4.304797 -2.267857,6.709079 0.360833,1.563616 1.256228,3.182387 2.362351,4.346726 0.277823,0.292444 0.62834,0.506005 0.944941,0.755951 1.457571,1.150716 2.951686,2.098085 4.819197,2.267858 0.587952,0.05345 1.198991,0.179694 1.795386,0.09449 1.353677,-0.193381 2.770134,-0.702892 4.063243,-1.133927 0.851771,-0.283925 0.662623,-0.283483 1.511906,-0.283483 0.283483,0 0.572064,-0.05354 0.850445,0 1.286647,0.247433 2.12403,0.623552 3.212798,1.228424 2.079847,1.155469 3.455009,1.854538 4.913691,3.874254 1.124011,1.556324 2.804192,5.281845 5.197173,4.913695 1.001266,-0.15405 1.995871,-0.68042 2.929316,-1.03944 1.997578,-0.7683 4.07905,-1.413816 5.858629,-2.645832 0.82813,-0.57332 1.66638,-1.163013 2.456847,-1.795386 0.261456,-0.209166 0.479615,-0.472387 0.755951,-0.661458 0.52686,-0.360484 1.632506,-0.828228 2.173365,-1.13393 0.422351,-0.238721 3.045999,-2.311405 3.307291,-2.267858 0.89108,0.148516 1.760876,0.72507 2.551338,1.13393 1.93563,1.001186 3.853452,2.069952 5.858631,2.929316 1.28116,0.549069 2.589287,1.154655 3.96875,1.41741 0.341763,0.0651 0.694214,0.05134 1.039434,0.09449 2.254629,0.281829 4.526997,0.283483 6.803573,0.283483 3.113704,0 5.931606,-0.140862 8.787941,-1.511903 2.08838,-1.002419 3.08077,-4.534861 2.45685,-6.614584 -0.38077,-1.269219 -1.17131,-2.363433 -2.07887,-3.307291 -1.53764,-1.59915 -3.252875,-2.886771 -5.38616,-3.496281 -1.243166,-0.35519 0.150026,-0.05374 -1.228424,-0.283483 -0.196498,-0.03275 -0.72,-0.06145 -0.566962,-0.188986 2.115418,-1.76285 4.893086,-2.86697 7.276046,-4.157739 3.44028,-1.86349 7.720993,-4.084355 10.583333,-6.803573 0.7313,-0.69474 1.3672,-1.568836 1.98437,-2.362351 1.48232,-1.905841 2.73125,-4.001333 2.55134,-6.520087 -0.0407,-0.570439 -0.22319,-0.975413 -0.56696,-1.417412 -1.67547,-2.154169 -4.97206,-1.795386 -7.37054,-1.795386 -1.506583,0 -3.030493,-0.06544 -4.535713,0 -1.45433,0.06323 -2.90433,0.306038 -4.34673,0.472469 -1.1062,0.127638 -2.051375,0.135546 -3.118302,0.472472 -1.426054,0.450331 -2.836026,1.020601 -4.063243,1.889879 -0.365311,0.258762 -0.683342,0.579138 -1.039434,0.850447 -0.126995,0.09676 -2.201164,1.713389 -2.362351,1.511906 -0.392179,-0.490223 -0.497084,-1.157266 -0.755955,-1.700895 -0.642874,-1.350036 -1.9139,-3.083912 -3.023809,-4.063243 -0.255471,-0.225417 -0.577884,-0.362543 -0.850445,-0.566965 -0.23232,-0.174236 -0.42914,-0.392724 -0.661458,-0.566963 -0.427929,-0.320947 -1.066085,-0.59392 -1.606399,-0.661458 -0.125021,-0.01564 -0.254984,0.02733 -0.377976,0 -0.165584,-0.0368 -0.305157,-0.161102 -0.472472,-0.188989 -0.217484,-0.03625 -0.441459,0.01466 -0.661458,0 -0.915424,-0.06103 -1.840741,-0.204978 -2.740326,-0.377976 -1.365531,-0.262602 -2.767735,-0.558496 -4.15774,-0.661458 -0.408355,-0.03025 -0.819274,0.01638 -1.22842,0 -1.042207,-0.04169 -2.071505,-0.146834 -3.118305,-0.09449 -2.170131,0.108506 -4.262533,0.950606 -6.142112,1.984375 -1.060667,0.583367 -2.28024,1.100794 -3.212798,1.889879 -0.783955,0.663348 -1.663383,1.538071 -2.267858,2.362354 -0.150175,0.204782 -0.22561,0.4583 -0.377976,0.661458 -0.133635,0.178178 -0.331433,0.300091 -0.472471,0.472469 -0.394978,0.482754 -0.403765,0.700143 -0.755952,1.228424 -0.111874,0.167812 -0.274209,0.299524 -0.377976,0.472469 -0.621538,1.035899 -0.05903,2.610373 -0.850447,3.401785"
       id="path875"
       sodipodi:nodetypes="ccssssssccscssssssssscssssssssssssssssssscsssccsssssssssssssscsscssssssssc" />
  </g>
</svg>
