<?xml version="1.0" encoding="UTF-8" standalone="no"?>
<svg
   xmlns:osb="http://www.openswatchbook.org/uri/2009/osb"
   xmlns:dc="http://purl.org/dc/elements/1.1/"
   xmlns:cc="http://creativecommons.org/ns#"
   xmlns:rdf="http://www.w3.org/1999/02/22-rdf-syntax-ns#"
   xmlns:svg="http://www.w3.org/2000/svg"
   xmlns="http://www.w3.org/2000/svg"
   xmlns:xlink="http://www.w3.org/1999/xlink"
   xmlns:sodipodi="http://sodipodi.sourceforge.net/DTD/sodipodi-0.dtd"
   xmlns:inkscape="http://www.inkscape.org/namespaces/inkscape"
   width="210mm"
   height="297mm"
   viewBox="0 0 210 297"
   version="1.1"
   id="svg8"
   inkscape:version="1.0.2-2 (e86c870879, 2021-01-15)"
   sodipodi:docname="Cloud2.svg"
   inkscape:export-filename="C:\Users\Nathan\Documents\LDJam\Originals\Cloud.png"
   inkscape:export-xdpi="56.88168"
   inkscape:export-ydpi="56.88168">
  <defs
     id="defs2">
    <linearGradient
       inkscape:collect="always"
       id="linearGradient2889">
      <stop
         style="stop-color:#ffffff;stop-opacity:1"
         offset="0"
         id="stop2885" />
      <stop
         style="stop-color:#cafffb;stop-opacity:1"
         offset="1"
         id="stop2887" />
    </linearGradient>
    <linearGradient
       id="linearGradient2879"
       osb:paint="solid">
      <stop
         style="stop-color:#cd2020;stop-opacity:1;"
         offset="0"
         id="stop2877" />
    </linearGradient>
    <pattern
       id="EMFhbasepattern"
       patternUnits="userSpaceOnUse"
       width="6"
       height="6"
       x="0"
       y="0" />
    <radialGradient
       inkscape:collect="always"
       xlink:href="#linearGradient2889"
       id="radialGradient2903"
       cx="64.899986"
       cy="92.54438"
       fx="64.899986"
       fy="92.54438"
       r="49.644871"
       gradientTransform="matrix(0.97754953,0.38189911,-0.14989358,0.38368354,15.328843,32.251377)"
       gradientUnits="userSpaceOnUse" />
  </defs>
  <sodipodi:namedview
     id="base"
     pagecolor="#ffffff"
     bordercolor="#666666"
     borderopacity="1.0"
     inkscape:pageopacity="0.0"
     inkscape:pageshadow="2"
     inkscape:zoom="1.979899"
     inkscape:cx="263.32911"
     inkscape:cy="281.17561"
     inkscape:document-units="mm"
     inkscape:current-layer="layer1"
     inkscape:document-rotation="0"
     showgrid="false"
     inkscape:window-width="2005"
     inkscape:window-height="1241"
     inkscape:window-x="437"
     inkscape:window-y="45"
     inkscape:window-maximized="0" />
  <metadata
     id="metadata5">
    <rdf:RDF>
      <cc:Work
         rdf:about="">
        <dc:format>image/svg+xml</dc:format>
        <dc:type
           rdf:resource="http://purl.org/dc/dcmitype/StillImage" />
        <dc:title></dc:title>
      </cc:Work>
    </rdf:RDF>
  </metadata>
  <g
     inkscape:label="Layer 1"
     inkscape:groupmode="layer"
     id="layer1">
    <path
       style="fill:url(#radialGradient2903);stroke:#000000;stroke-width:0.264583px;stroke-linecap:butt;stroke-linejoin:miter;stroke-opacity:1;fill-opacity:1"
       d="m 76.31635,80.886906 c 1.50076,-0.66188 1.05144,-0.57357 1.73528,-1.52337 0.33936,-0.47134 1.04125,-1.19625 1.46802,-1.59019 1.4738,-1.36044 4.00035,-3.34962 5.86813,-4.06799 0.42804,-0.16464 0.89957,-0.20159 1.32291,-0.37798 0.33907,-0.14128 0.60389,-0.43054 0.94494,-0.56696 1.57894,-0.63158 3.6362,-0.37798 5.29167,-0.37798 3.6759,0 6.7605,0.33491 9.4494,3.02381 0.25199,0.25198 0.55828,0.45944 0.75595,0.75595 0.52547,0.78819 0.45879,1.59137 0.56697,2.45685 0.13188,1.05502 0.46545,2.35452 0,3.40178 -0.7158,1.61056 -2.87735,2.75113 -4.34673,3.590777 -0.47832,0.273328 -1.30109,0.545143 -1.70089,0.944941 -0.0446,0.04455 0.12648,-0.0078 0.18899,0 0.44201,0.05525 0.88353,0.115755 1.32291,0.188987 3.32971,0.554953 4.95175,0.970312 7.74852,2.834822 4.8161,3.210732 6.34494,8.16923 7.18154,13.607147 0.17223,1.11944 0.45269,4.23688 0.18899,5.29167 -0.1332,0.5328 -1.07631,1.35242 -1.5119,1.70089 -0.70706,0.56564 -0.5241,0.32001 -1.51191,0.56696 -3.33709,0.83428 -5.63837,0.94494 -9.07142,0.94494 -1.69955,0 -4.0299,0.28937 -5.66965,0 -0.68973,-0.12171 -2.61604,-1.41639 -3.40178,-0.94494 -1.24351,0.74611 -0.56616,0.63466 -1.7009,2.07887 -1.15052,1.4643 -2.80546,2.94124 -4.34672,3.96875 -4.57542,3.05028 -10.2101,3.2128 -15.497026,3.2128 -4.170172,0 -8.001579,0.15054 -11.71726,-2.07887 -2.156249,-1.29375 -3.021454,-3.20574 -3.779764,-5.48065 -0.46931,-1.40793 0.26926,-2.41672 -1.32292,-3.2128 -1.10799,-0.554 -5.29794,0.96935 -6.61458,1.13393 -2.32283,0.29035 -4.67097,0.43937 -6.99256,0.75595 -0.69786,0.0952 -1.37772,0.3112 -2.07887,0.37797 -1.89282,0.18027 -3.96046,0 -5.85863,0 -3.896169,0 -6.584899,0.0908 -9.827379,-2.45684 -1.02452,-0.80499 -2.23695,-2.8384 -2.45684,-4.15774 -0.45214,-2.71282 0.21585,-8.454167 2.07887,-10.583335 0.20741,-0.237046 0.5168,-0.361976 0.75595,-0.566965 1.99582,-1.710701 2.18837,-1.365557 4.53571,-1.700893 0.18777,-0.02682 1.687629,-0.391239 1.511909,-0.566962 -2.428259,-2.428256 -5.474109,-4.089445 -8.126489,-6.236607 -1.23555,-1.000202 -2.11315,-1.924162 -3.2128,-3.023812 -1.96919,-1.9692 -3.02381,-2.85614 -3.02381,-5.66964 0,-0.56697 -0.16291,-1.15784 0,-1.7009 0.42895,-1.42981 2.34952,-3.41825 3.40179,-4.34672 4.8549,-4.28374 7.6454,-4.59012 13.796129,-5.10268 2.56685,-0.2139 6.26254,-0.72698 8.69345,0.37798 3.4576,1.57163 4.98269,5.54965 7.55952,8.12648 0.31704,0.31705 2.54895,-2.73793 2.83483,-3.02381 1.55279,-1.55279 5.15706,-4.37144 7.181543,-5.29166 1.004861,-0.45676 0.697497,-0.0533 1.511903,-0.18899 0.587804,-0.098 1.079654,-0.29253 1.700893,-0.18899 2.225286,0.37088 5.425553,2.58904 7.181548,3.96875 1.959454,1.53957 3.658643,3.42536 5.291663,5.29167 0.176,0.20114 0.43436,0.33491 0.56697,0.56696 0.12886,0.22552 0.0601,0.53044 0.18898,0.75596 0.13261,0.23205 0.41872,0.34458 0.56697,0.56696 0.38535,0.57802 0.41479,1.52552 0.37798,4.53572"
       id="path2895"
       sodipodi:nodetypes="csssssssssssscsssssssssssssssscsssssssssssssssssssssssssc" />
  </g>
</svg>
