<?xml version="1.0" encoding="UTF-8" standalone="no"?>
<svg
   xmlns:osb="http://www.openswatchbook.org/uri/2009/osb"
   xmlns:dc="http://purl.org/dc/elements/1.1/"
   xmlns:cc="http://creativecommons.org/ns#"
   xmlns:rdf="http://www.w3.org/1999/02/22-rdf-syntax-ns#"
   xmlns:svg="http://www.w3.org/2000/svg"
   xmlns="http://www.w3.org/2000/svg"
   xmlns:xlink="http://www.w3.org/1999/xlink"
   xmlns:sodipodi="http://sodipodi.sourceforge.net/DTD/sodipodi-0.dtd"
   xmlns:inkscape="http://www.inkscape.org/namespaces/inkscape"
   width="210mm"
   height="297mm"
   viewBox="0 0 210 297"
   version="1.1"
   id="svg8"
   inkscape:version="1.0.2-2 (e86c870879, 2021-01-15)"
   sodipodi:docname="Feather.svg"
   inkscape:export-filename="C:\Users\Nathan\Documents\LDJam\Originals\Angel2.png"
   inkscape:export-xdpi="73.559998"
   inkscape:export-ydpi="73.559998">
  <defs
     id="defs2">
    <linearGradient
       inkscape:collect="always"
       id="linearGradient5839">
      <stop
         style="stop-color:#919191;stop-opacity:1"
         offset="0"
         id="stop5835" />
      <stop
         style="stop-color:#ffffff;stop-opacity:1"
         offset="1"
         id="stop5837" />
    </linearGradient>
    <linearGradient
       id="linearGradient2879"
       osb:paint="solid">
      <stop
         style="stop-color:#cd2020;stop-opacity:1;"
         offset="0"
         id="stop2877" />
    </linearGradient>
    <pattern
       id="EMFhbasepattern"
       patternUnits="userSpaceOnUse"
       width="6"
       height="6"
       x="0"
       y="0" />
    <clipPath
       clipPathUnits="userSpaceOnUse"
       id="clipPath5658">
      <ellipse
         style="fill:#db1c1c;fill-opacity:0.608871;stroke:none;stroke-width:0.201246;stroke-opacity:1"
         id="ellipse5660"
         cx="31.004614"
         cy="28.655539"
         rx="17.294016"
         ry="17.316034" />
    </clipPath>
    <linearGradient
       inkscape:collect="always"
       xlink:href="#linearGradient5839"
       id="linearGradient5841"
       x1="34.013206"
       y1="27.287394"
       x2="37.722725"
       y2="30.344288"
       gradientUnits="userSpaceOnUse" />
  </defs>
  <sodipodi:namedview
     id="base"
     pagecolor="#ffffff"
     bordercolor="#666666"
     borderopacity="1.0"
     inkscape:pageopacity="0.0"
     inkscape:pageshadow="2"
     inkscape:zoom="5.6"
     inkscape:cx="157.77762"
     inkscape:cy="138.60794"
     inkscape:document-units="mm"
     inkscape:current-layer="layer1"
     inkscape:document-rotation="0"
     showgrid="false"
     inkscape:window-width="2005"
     inkscape:window-height="1241"
     inkscape:window-x="437"
     inkscape:window-y="45"
     inkscape:window-maximized="0" />
  <metadata
     id="metadata5">
    <rdf:RDF>
      <cc:Work
         rdf:about="">
        <dc:format>image/svg+xml</dc:format>
        <dc:type
           rdf:resource="http://purl.org/dc/dcmitype/StillImage" />
        <dc:title></dc:title>
      </cc:Work>
    </rdf:RDF>
  </metadata>
  <g
     inkscape:label="Layer 1"
     inkscape:groupmode="layer"
     id="layer1">
    <path
       style="fill:url(#linearGradient5841);stroke:#000000;stroke-width:0.2;stroke-linecap:butt;stroke-linejoin:miter;stroke-miterlimit:4;stroke-dasharray:none;stroke-opacity:1;fill-opacity:1"
       d="m 30.452023,31.354056 c 0,0 -0.58789,-1.401808 -0.150342,-2.522355 0.68488,-1.753958 1.350952,-1.921309 1.887593,-2.405427 0.756739,-0.682674 0.985554,-0.835217 1.35305,-1.1526 0.367496,-0.317382 1.921002,-1.486686 2.321904,-1.937704 0.400905,-0.451017 1.319644,-1.536799 1.319644,-1.820773 0,-0.283974 0.701582,2.104747 0.634767,3.624843 -0.06682,1.520096 -0.507269,2.323125 -1.052375,3.223939 -0.592962,0.979899 -0.62303,1.250142 -2.505652,2.65599 -0.797912,0.595841 -2.88985,0.868627 -3.324164,0.718286 -0.434313,-0.150339 -0.484425,-0.384199 -0.484425,-0.384199 z"
       id="path5833"
       sodipodi:nodetypes="csssssssssc" />
    <path
       style="fill:none;stroke:#000000;stroke-width:0.2;stroke-linecap:butt;stroke-linejoin:miter;stroke-opacity:1;stroke-miterlimit:4;stroke-dasharray:none"
       d="m 28.380682,34.461063 2.071341,-3.107007 c 0.871268,-0.626166 0.984984,-0.622184 1.520426,-0.969795 2.836097,-1.841208 5.051761,-7.669382 5.161311,-8.401343 0.132529,-0.885496 0.100227,-0.350791 0.100227,-0.350791"
       id="path5845"
       sodipodi:nodetypes="ccssc" />
    <path
       style="fill:#ffffff;fill-opacity:1;stroke:#000000;stroke-width:0.2;stroke-linecap:butt;stroke-linejoin:miter;stroke-miterlimit:4;stroke-dasharray:none;stroke-opacity:1"
       d="m 28.380682,34.461063 v 0 c 0,0 0.534541,-0.751695 1.102487,-0.835216 0.56795,-0.08352 1.469982,-1.937704 1.469982,-1.937704 l -0.501128,-0.334087 z"
       id="path5847"
       sodipodi:nodetypes="ccsccc" />
    <path
       style="fill:none;stroke:#000000;stroke-width:0.14;stroke-linecap:butt;stroke-linejoin:miter;stroke-opacity:1;stroke-miterlimit:4;stroke-dasharray:none"
       d="m 36.148203,23.21904 c 0.05369,0.01812 0.112688,-0.01208 0.167044,0 0.111686,0.02482 0.253741,0.09211 0.35079,0.150339 0.05875,0.03525 0.113136,0.08257 0.183748,0.100226 0.0141,0.0035 0.05222,-0.0073 0.06682,0 0.04055,0.02027 0.101103,0.02637 0.150339,0.03341 0.05353,0.0076 0.113914,-0.01063 0.167045,0 0.03354,-0.0038 0.05443,0.02614 0.08352,0.03341 0.06843,0.01711 0.163541,0 0.233859,0"
       id="path5873" />
    <path
       style="fill:none;stroke:#000000;stroke-width:0.14;stroke-linecap:butt;stroke-linejoin:miter;stroke-opacity:1;stroke-miterlimit:4;stroke-dasharray:none"
       d="m 36.916603,22.818136 c 0.100195,0.06067 0.211161,0.01824 0.317384,0.03341 0.0506,0.0072 0.08298,0.0167 0.133633,0.0167"
       id="path5875" />
    <path
       style="fill:none;stroke:#000000;stroke-width:0.14;stroke-linecap:butt;stroke-linejoin:miter;stroke-opacity:1;stroke-miterlimit:4;stroke-dasharray:none"
       d="m 35.647074,23.970735 c 0.331798,0.171972 0.669398,0.323796 1.035669,0.400905 0.11933,0.02512 0.292251,0.03341 0.417608,0.03341 0.06905,0 0.148981,-0.01136 0.217157,0 0.07365,0.01227 0.14071,0.01671 0.217156,0.01671"
       id="path5877" />
    <path
       style="fill:none;stroke:#000000;stroke-width:0.14;stroke-linecap:butt;stroke-linejoin:miter;stroke-opacity:1;stroke-miterlimit:4;stroke-dasharray:none"
       d="m 35.062421,24.354935 c 0.155906,0.189316 0.298805,0.390142 0.46772,0.567948 0.104159,0.10964 0.390142,0.204966 0.534541,0.250565 0.206224,0.06512 0.420547,0.131341 0.634764,0.167044 0.05945,0.0099 0.123809,-0.0067 0.183748,0 0.134347,0.01493 0.265139,0.01671 0.400905,0.01671"
       id="path5879" />
    <path
       style="fill:none;stroke:#000000;stroke-width:0.14;stroke-linecap:butt;stroke-linejoin:miter;stroke-opacity:1;stroke-miterlimit:4;stroke-dasharray:none"
       d="m 34.243907,25.039814 c 0.147581,0.05903 0.02622,-0.0022 0.167044,0.11693 0.114459,0.09685 0.120698,0.0813 0.217157,0.167044 0.09126,0.08111 0.185351,0.185807 0.300678,0.23386 0.03742,0.01559 0.0791,0.01886 0.11693,0.03341 0.075,6.35e-4 0.107706,0.07385 0.167044,0.100226 0.02596,0.01153 0.05633,0.0085 0.08352,0.0167 0.104942,0.03148 0.215572,0.07621 0.317384,0.116931 0.118142,0.04726 0.22751,0.11408 0.35079,0.150339 0.04925,0.01449 0.101089,0.01892 0.150339,0.03341 0.211558,0.06222 0.05736,0.02963 0.233862,0.100226 0.07701,0.0308 0.185053,0.05312 0.267269,0.06682 0.140962,0.0235 0.292764,-0.02022 0.434314,0 0.07508,0.01073 0.140237,0.0167 0.217156,0.0167"
       id="path5885" />
    <path
       style="fill:none;stroke:#000000;stroke-width:0.14;stroke-linecap:butt;stroke-linejoin:miter;stroke-opacity:1;stroke-miterlimit:4;stroke-dasharray:none"
       d="m 33.659257,26.042074 c 0.205835,0.219484 0.40227,0.46141 0.651467,0.634765 0.164259,0.114266 0.382284,0.155268 0.56795,0.217157 0.100224,0.03341 0.201051,0.06506 0.300677,0.100227 0.03999,0.0141 0.07596,0.03918 0.11693,0.05011 0.04338,0.01156 0.08951,0.0084 0.133636,0.01669 0.125111,0.02347 0.243816,0.07168 0.367496,0.100224 0.372692,0.08601 0.752784,0.167045 1.135893,0.167045"
       id="path5887" />
    <path
       style="fill:none;stroke:#000000;stroke-width:0.14;stroke-linecap:butt;stroke-linejoin:miter;stroke-opacity:1;stroke-miterlimit:4;stroke-dasharray:none"
       d="m 32.623588,26.777066 c 0.2126,0.294373 0.231402,0.386128 0.584649,0.567947 0.320345,0.164883 1.036813,0.451291 1.45328,0.551243 0.139441,0.03347 0.279434,0.04405 0.417608,0.08352 0.15064,0.04304 0.299881,0.09585 0.451016,0.133636 0.110213,0.02755 0.223211,0.03725 0.334087,0.06682 0.07834,0.0209 0.154363,0.05092 0.233863,0.06682 0.167499,0.0335 0.34736,0.01669 0.517834,0.01669"
       id="path5889" />
    <path
       style="fill:none;stroke:#000000;stroke-width:0.14;stroke-linecap:butt;stroke-linejoin:miter;stroke-opacity:1;stroke-miterlimit:4;stroke-dasharray:none"
       d="m 31.67144,27.52876 c 0.228708,0.239242 0.440951,0.480973 0.718285,0.668174 0.384953,0.259845 0.836041,0.414951 1.269532,0.567949 0.107479,0.03793 0.136882,0.06991 0.250563,0.100224 0.24385,0.06503 0.50233,0.09208 0.751697,0.133636 0.211365,0.03523 0.423577,0.06183 0.634764,0.100227 0.05657,0.01029 0.147725,-7.94e-4 0.200451,0.01669 0.0053,0.0019 0,0.01114 0,0.01669"
       id="path5891" />
    <path
       style="fill:none;stroke:#000000;stroke-width:0.14;stroke-linecap:butt;stroke-linejoin:miter;stroke-opacity:1;stroke-miterlimit:4;stroke-dasharray:none"
       d="m 31.153605,28.347273 c 0.19558,0.40218 0.544989,0.73184 0.918739,0.968854 0.18487,0.117234 0.218586,0.07843 0.384199,0.133633 0.227258,0.07575 0.449601,0.20425 0.668173,0.30068 0.319699,0.141042 0.63282,0.304895 0.968852,0.400902 0.19363,0.05532 0.391911,0.08545 0.584652,0.133636 0.04037,0.01008 0.217157,-0.02302 0.217157,0.0167"
       id="path5893" />
    <path
       style="fill:none;stroke:#000000;stroke-width:0.14;stroke-linecap:butt;stroke-linejoin:miter;stroke-opacity:1;stroke-miterlimit:4;stroke-dasharray:none"
       d="m 30.435317,29.516578 c 0.258709,0.258709 0.0019,0.0056 0.484425,0.451016 0.467337,0.43139 0.09217,0.112729 0.56795,0.484429 0.205203,0.160313 0.4036,0.339886 0.651467,0.43431 0.04798,0.01828 0.101341,0.0181 0.150339,0.03341 0.04048,0.01265 0.0767,0.0367 0.116933,0.05012 0.140576,0.04686 0.323501,0.06417 0.46772,0.100224 0.125296,0.03132 0.03953,0.03949 0.167044,0.05012 0.07698,0.0064 0.274479,-0.0095 0.334087,0.05011"
       id="path5895" />
  </g>
</svg>
