<?xml version="1.0" encoding="UTF-8" standalone="no"?>
<svg
   xmlns:osb="http://www.openswatchbook.org/uri/2009/osb"
   xmlns:dc="http://purl.org/dc/elements/1.1/"
   xmlns:cc="http://creativecommons.org/ns#"
   xmlns:rdf="http://www.w3.org/1999/02/22-rdf-syntax-ns#"
   xmlns:svg="http://www.w3.org/2000/svg"
   xmlns="http://www.w3.org/2000/svg"
   xmlns:xlink="http://www.w3.org/1999/xlink"
   xmlns:sodipodi="http://sodipodi.sourceforge.net/DTD/sodipodi-0.dtd"
   xmlns:inkscape="http://www.inkscape.org/namespaces/inkscape"
   width="210mm"
   height="297mm"
   viewBox="0 0 210 297"
   version="1.1"
   id="svg8"
   inkscape:version="1.0.2-2 (e86c870879, 2021-01-15)"
   sodipodi:docname="Jellyfish.svg"
   inkscape:export-filename="C:\Users\Nathan\Documents\LDJam\Originals\Cloud.png"
   inkscape:export-xdpi="131.88"
   inkscape:export-ydpi="131.88">
  <defs
     id="defs2">
    <linearGradient
       inkscape:collect="always"
       id="linearGradient3228">
      <stop
         style="stop-color:#2bf541;stop-opacity:1"
         offset="0"
         id="stop3224" />
      <stop
         style="stop-color:#bff9c0;stop-opacity:1"
         offset="1"
         id="stop3226" />
    </linearGradient>
    <linearGradient
       id="linearGradient2879"
       osb:paint="solid">
      <stop
         style="stop-color:#cd2020;stop-opacity:1;"
         offset="0"
         id="stop2877" />
    </linearGradient>
    <pattern
       id="EMFhbasepattern"
       patternUnits="userSpaceOnUse"
       width="6"
       height="6"
       x="0"
       y="0" />
    <radialGradient
       inkscape:collect="always"
       xlink:href="#linearGradient3228"
       id="radialGradient3230"
       cx="34.454208"
       cy="21.096205"
       fx="34.454208"
       fy="21.096205"
       r="10.725598"
       gradientTransform="matrix(0.79550919,-0.69152152,0.67405306,0.77541391,-7.1743925,28.012121)"
       gradientUnits="userSpaceOnUse" />
    <linearGradient
       inkscape:collect="always"
       xlink:href="#linearGradient3228"
       id="linearGradient3238"
       x1="25.664581"
       y1="30.429323"
       x2="29.162867"
       y2="30.429323"
       gradientUnits="userSpaceOnUse"
       gradientTransform="translate(-0.25985863,0.70870536)" />
    <linearGradient
       inkscape:collect="always"
       xlink:href="#linearGradient3228"
       id="linearGradient3246"
       x1="29.178467"
       y1="30.956909"
       x2="32.901123"
       y2="30.956909"
       gradientUnits="userSpaceOnUse" />
    <linearGradient
       inkscape:collect="always"
       xlink:href="#linearGradient3228"
       id="linearGradient3254"
       x1="33.470966"
       y1="30.297457"
       x2="36.343884"
       y2="30.297457"
       gradientUnits="userSpaceOnUse" />
    <linearGradient
       inkscape:collect="always"
       xlink:href="#linearGradient3228"
       id="linearGradient3262"
       x1="37.379013"
       y1="30.220743"
       x2="40.132317"
       y2="30.220743"
       gradientUnits="userSpaceOnUse" />
    <linearGradient
       inkscape:collect="always"
       xlink:href="#linearGradient3228"
       id="linearGradient3270"
       x1="40.613983"
       y1="30.592033"
       x2="43.481682"
       y2="30.592033"
       gradientUnits="userSpaceOnUse" />
  </defs>
  <sodipodi:namedview
     id="base"
     pagecolor="#ffffff"
     bordercolor="#666666"
     borderopacity="1.0"
     inkscape:pageopacity="0.0"
     inkscape:pageshadow="2"
     inkscape:zoom="2.8"
     inkscape:cx="215.47769"
     inkscape:cy="81.838032"
     inkscape:document-units="mm"
     inkscape:current-layer="layer1"
     inkscape:document-rotation="0"
     showgrid="false"
     inkscape:window-width="2005"
     inkscape:window-height="1241"
     inkscape:window-x="437"
     inkscape:window-y="45"
     inkscape:window-maximized="0" />
  <metadata
     id="metadata5">
    <rdf:RDF>
      <cc:Work
         rdf:about="">
        <dc:format>image/svg+xml</dc:format>
        <dc:type
           rdf:resource="http://purl.org/dc/dcmitype/StillImage" />
        <dc:title></dc:title>
      </cc:Work>
    </rdf:RDF>
  </metadata>
  <g
     inkscape:label="Layer 1"
     inkscape:groupmode="layer"
     id="layer1">
    <path
       style="fill:url(#linearGradient3238);fill-opacity:1;stroke:#000000;stroke-width:0.264583px;stroke-linecap:butt;stroke-linejoin:miter;stroke-opacity:1"
       d="m 28.230088,24.993667 c -0.335809,0.197748 -1.187239,0.15389 -1.322909,0.425231 -0.05079,0.101578 -0.138197,0.181904 -0.188987,0.283482 -0.01408,0.02817 0.01408,0.06632 0,0.09449 -0.01992,0.03984 -0.07457,0.05465 -0.0945,0.09449 -0.05919,0.118379 -0.118755,1.13009 -0.09449,1.27567 0.02812,0.168722 0.157022,0.312634 0.188989,0.472471 0.0093,0.04633 -0.0093,0.09541 0,0.14174 0.02593,0.129678 0.161306,0.239564 0.188987,0.377976 0.05021,0.251058 0.07332,0.542443 0.04725,0.803201 -0.03351,0.335148 -0.249285,0.887944 -0.425222,1.181174 -0.05734,0.09556 -0.186629,0.184272 -0.236236,0.283482 -0.02817,0.05635 0.01527,0.127874 0,0.18899 -0.0085,0.03416 -0.04034,0.05996 -0.04725,0.09449 -0.0753,0.376478 0.157822,0.759904 0.18899,1.133927 0.04267,0.512017 0,1.045366 0,1.559153 0,0.539853 0.0013,1.071105 -0.04725,1.606399 -0.01283,0.141158 0.02005,0.284906 0,0.425223 -0.01619,0.113286 -0.337656,0.795006 -0.377976,0.850447 -0.130228,0.179062 -0.472471,0.453533 -0.472471,0.708705 0,0.01574 0.0318,-0.0031 0.04725,0 0.06367,0.01273 0.126341,0.03016 0.188988,0.04725 0.323842,0.08832 0.732587,0.32476 1.086681,0.236236 0.246319,-0.06158 0.847212,-0.50354 0.897694,-0.755955 0.04369,-0.218421 0.0041,-0.50342 -0.04725,-0.708705 -0.03572,-0.142875 0.0182,-0.326845 0,-0.472469 -0.02574,-0.205917 -0.09443,-0.449133 -0.04725,-0.661458 0.05193,-0.233691 0.351639,-0.939517 0.472469,-1.181177 0.0159,-0.0318 0.129956,-0.177302 0.14174,-0.236233 0.117859,-0.589296 -0.257387,-1.394883 -0.188987,-2.078871 0.03068,-0.30684 0.05248,-0.174937 0.14174,-0.472469 0.07048,-0.234939 0.111337,-0.51271 0.141743,-0.755952 0.08329,-0.666334 -0.06081,-1.362675 0,-2.031624 0.05721,-0.629255 0.496043,-1.48853 0.377976,-2.078868 -0.06717,-0.335838 -0.39179,-0.452848 -0.519719,-0.708705 -0.01889,-0.0378 0.01889,-0.103944 0,-0.141741 -0.03234,-0.06469 -0.283482,0.08999 -0.283482,-0.04725"
       id="path3214"
       sodipodi:nodetypes="cssscsccssssccsscsssccsscssscssscsccc" />
    <path
       style="fill:url(#linearGradient3246);fill-opacity:1;stroke:#000000;stroke-width:0.264583px;stroke-linecap:butt;stroke-linejoin:miter;stroke-opacity:1"
       d="m 30.285342,23.954241 c -0.01574,0.299231 -0.0213,0.599174 -0.04725,0.897693 -0.05411,0.622216 -0.312148,2.05713 -0.236236,2.740327 0.04754,0.427852 0.269729,0.737028 0.377976,1.13393 0.08201,0.300696 0.169494,0.633042 0.188989,0.944941 0.02678,0.428569 0.05382,0.939601 0,1.370163 -0.02768,0.221443 -0.121399,0.437687 -0.141743,0.661458 -0.02233,0.245692 0,0.508821 0,0.755952 0,0.43869 0.303083,0.762243 0.188989,1.27567 -0.116234,0.523052 -0.617053,0.903377 -0.850447,1.370163 -0.159306,0.318611 -0.36685,0.878192 -0.425223,1.228424 -0.05546,0.332769 0.141532,0.811003 0.543342,0.944941 0.191849,0.06395 0.605442,-0.362846 0.755953,-0.448849 0.460846,-0.263342 0.390164,-0.644904 0.708702,-1.252046 0.304712,-1.6439 1.102472,-0.674218 0.637837,-2.362351 -0.229772,-0.781228 -0.386215,-1.587733 -0.283483,-2.409598 0.07436,-0.59491 0.458378,-1.057685 0.377976,-1.700892 -0.03346,-0.267711 -0.236069,-0.401355 -0.377976,-0.614212 -0.133204,-0.199805 -0.291592,-0.572841 -0.377976,-0.803198 -0.209494,-0.558655 -0.199831,-1.212943 -0.236235,-1.795388 -0.01979,-0.31681 -0.06587,-0.630029 -0.09449,-0.944941 -0.03201,-0.352055 -0.01394,-0.531334 -0.283482,-0.755952 -0.19789,-0.164908 -0.156216,-0.236235 -0.425223,-0.236235 z"
       id="path3216"
       sodipodi:nodetypes="ccsssssssssscccssssccsc" />
    <path
       style="fill:url(#linearGradient3254);fill-opacity:1;stroke:#000000;stroke-width:0.264583px;stroke-linecap:butt;stroke-linejoin:miter;stroke-opacity:1"
       d="m 34.868312,24.23772 c -0.389395,0.389397 -1.028645,1.265145 -1.228432,1.984378 -0.245845,0.885043 0.933667,2.925827 1.133928,3.827008 0.186465,0.839084 -0.04963,1.675122 -0.14174,2.504094 -0.01728,0.155553 0.01558,0.31673 0,0.472469 -0.08466,0.846619 0.02336,1.703906 -0.04725,2.55134 -0.02887,0.346429 -0.04894,0.33242 -0.330729,0.614211 -0.196767,0.279043 -0.08441,0.08956 -0.212612,0.785481 0.04446,1.061383 0.889137,0.05553 0.944941,-0.283482 0,0 0.204177,-0.304579 0.259858,-0.360259 0.0105,-0.0105 0.138774,-0.46505 0.14174,-0.472469 0.154374,-0.385934 0.342268,-0.705421 0.377976,-1.13393 0.0092,-0.10986 -0.01,-0.220937 0,-0.330729 0.02228,-0.245054 0.06382,-0.144208 0.141743,-0.377976 0.08901,-0.267038 0.199321,-0.620842 0.236236,-0.897694 0.04177,-0.313288 0.04725,-0.764418 0.04725,-1.086681 0,-0.188986 0.04249,-0.382815 0,-0.566965 -0.02376,-0.102941 -0.103817,-0.184875 -0.141742,-0.28348 -0.04116,-0.107013 -0.05191,-0.224276 -0.09449,-0.330729 -0.199453,-0.498636 -0.281707,-0.547447 -0.330729,-1.086683 -0.04355,-0.479076 0,-0.982665 0,-1.464657 0,-0.269616 -0.04804,-0.586242 0,-0.850447 0.09374,-0.515573 0.09297,0.01376 0.14174,-0.425223 0.03344,-0.300945 0.04909,-0.744889 0,-1.039434 -0.07096,-0.425737 -0.143195,-1.088136 -0.472469,-1.417411 -0.0249,-0.0249 -0.06959,-0.02235 -0.09449,-0.04725 -0.107794,-0.107794 -0.14718,-0.283482 -0.330729,-0.283482"
       id="path3218"
       sodipodi:nodetypes="cssscsccsscccsssssssssssssc" />
    <path
       style="fill:url(#linearGradient3262);stroke:#000000;stroke-width:0.264583px;stroke-linecap:butt;stroke-linejoin:miter;stroke-opacity:1;fill-opacity:1.0"
       d="m 38.553577,23.43452 c -0.374872,1.062138 -0.934912,1.238926 -0.897701,2.504096 0.0051,0.173878 -0.0027,0.3531 0.04725,0.519717 0.04659,0.155307 0.163718,0.280196 0.236233,0.425222 0.274463,0.548928 0.356044,1.039561 0.377976,1.653646 0.02664,0.745919 -0.06493,1.082066 -0.188987,1.795388 -0.02712,0.155935 -0.01463,0.31759 -0.04725,0.472469 -0.191545,0.909834 -0.141742,-0.07752 -0.141742,0.897695 0,0.283482 -0.01664,0.567454 0,0.850447 0.04699,0.798798 0.262191,1.604378 0.188989,2.409598 -0.03595,0.395504 -0.158343,0.304231 -0.330729,0.519715 -0.03111,0.03889 -0.02498,0.0972 -0.04725,0.141743 -0.160435,0.320868 -0.236236,0.529082 -0.236236,0.897694 0,0.125508 -0.01992,0.218781 0.04725,0.330729 0.117721,0.196202 0.04567,0.06247 0.141743,0.09449 0.304506,0.101502 0.391501,-0.128268 0.614209,-0.33073 0.564086,-0.512804 0.613751,-0.739436 0.992187,-1.370163 0.280231,-0.467048 0.529095,-0.803915 0.472472,-1.370163 -0.07137,-0.713706 -0.8236,-0.923827 -0.661458,-1.842635 0.175588,-0.995003 0.781277,-1.844561 0.850444,-2.882069 0.01106,-0.16568 0.05939,-0.843725 0,-0.992188 -0.02109,-0.05272 -0.07212,-0.08955 -0.09449,-0.14174 -0.05923,-0.138197 -0.06384,-0.397094 -0.09449,-0.519718 -0.03624,-0.144947 -0.103719,-0.280734 -0.141743,-0.425223 -0.114093,-0.433559 -0.149479,-0.894113 -0.28348,-1.322916 -0.09651,-0.30884 -0.285488,-0.589398 -0.377978,-0.897694 -0.08159,-0.271977 -0.08868,-0.582955 -0.188987,-0.850446 -0.119456,-0.31855 -0.07888,0.03086 -0.141742,-0.283482 -0.02188,-0.10942 -0.0062,-0.195178 -0.09449,-0.283482"
       id="path3220"
       sodipodi:nodetypes="cccssscscsscsscsssscsscsssssc" />
    <path
       style="fill:url(#linearGradient3270);stroke:#000000;stroke-width:0.264583px;stroke-linecap:butt;stroke-linejoin:miter;stroke-opacity:1;fill-opacity:1.0"
       d="m 41.813611,24.143233 c -1.544309,-0.309987 -0.983682,1.87472 -0.89769,2.882066 0.09374,1.098084 0.516601,1.399542 0.803201,2.173361 0.09021,0.24357 0.140705,0.50074 0.188986,0.755952 0.20623,1.090072 0.283483,2.200489 0.283483,3.307291 0,0.220488 0.03231,0.443355 0,0.661459 -0.03139,0.211896 -0.135229,0.406857 -0.188987,0.614211 -0.0969,0.373737 -0.197818,0.749753 -0.236236,1.13393 -0.02638,0.263748 -0.02273,1.252929 0.18899,1.464657 0.04454,0.04454 0.125992,0 0.188986,0 0.110244,0 0.223311,0.02479 0.330729,0 0.555763,-0.128252 0.690105,-0.870535 0.803201,-1.322917 -0.465721,-4.541454 0.423327,-4.1126 -0.0945,-5.669642 -0.614211,-1.511906 -0.653384,-1.113503 -0.614211,-1.511906 0.03337,-0.339438 0.02598,-0.804402 -0.04725,-1.133928 -0.02162,-0.09723 -0.07812,-0.185232 -0.09449,-0.283482 -0.113903,-0.683424 -0.244171,-1.386394 -0.330729,-2.078869 -0.03754,-0.30032 -0.10432,-0.598322 -0.14174,-0.897693 -0.01183,-0.09458 -0.0044,-0.369191 -0.141743,-0.09449"
       id="path3222"
       sodipodi:nodetypes="cssssssssssccsccssc" />
    <path
       style="fill:url(#radialGradient3230);stroke:#000000;stroke-width:0.264583px;stroke-linecap:butt;stroke-linejoin:miter;stroke-opacity:1;fill-opacity:1"
       d="m 24.143229,26.222098 1.653646,-1.889881 c 0.717165,-0.819617 2.126115,-9.071429 2.267857,-11.150298 0.14174,-2.078869 1.133928,-4.2994787 6.331101,-4.4412196 5.197174,-0.1417413 7.843007,0.4724701 8.173736,3.4017856 0.330729,2.929315 -0.822405,11.330313 0.661458,12.284226 1.322917,0.850447 2.976561,1.937128 0.992187,1.511905 -2.033248,-0.435697 -1.674537,0.566777 -2.83482,0.04725 -3.165553,-1.417411 -5.149927,0.614211 -6.945313,0.519717 -1.795388,-0.09449 -2.693081,-1.181176 -6.000372,-0.755953 -1.489276,0.191478 -4.29948,0.472471 -4.29948,0.472471 z"
       id="path3212"
       sodipodi:nodetypes="cssssssssscc" />
    <circle
       style="fill:#ffffff;fill-opacity:1;stroke:#000000;stroke-width:0.165;stroke-miterlimit:4;stroke-dasharray:none;stroke-opacity:1"
       id="path1027"
       cx="38.175602"
       cy="14.268601"
       r="1.6772693" />
    <circle
       style="fill:#000000;fill-opacity:1;stroke:#000000;stroke-width:0.249649;stroke-miterlimit:4;stroke-dasharray:none;stroke-opacity:1"
       id="path1077"
       cx="38.813438"
       cy="14.292226"
       r="0.5718869" />
    <circle
       style="fill:#ffffff;fill-opacity:1;stroke:#000000;stroke-width:0.165;stroke-miterlimit:4;stroke-dasharray:none;stroke-opacity:1"
       id="path1027-4"
       cx="-31.938988"
       cy="14.45759"
       r="1.6772693"
       transform="scale(-1,1)" />
    <circle
       style="fill:#000000;fill-opacity:1;stroke:#000000;stroke-width:0.249649;stroke-miterlimit:4;stroke-dasharray:none;stroke-opacity:1"
       id="path1077-1"
       cx="-31.301151"
       cy="14.481215"
       r="0.5718869"
       transform="scale(-1,1)" />
  </g>
</svg>
