<?xml version="1.0" encoding="UTF-8" standalone="no"?>
<svg
   xmlns:dc="http://purl.org/dc/elements/1.1/"
   xmlns:cc="http://creativecommons.org/ns#"
   xmlns:rdf="http://www.w3.org/1999/02/22-rdf-syntax-ns#"
   xmlns:svg="http://www.w3.org/2000/svg"
   xmlns="http://www.w3.org/2000/svg"
   xmlns:xlink="http://www.w3.org/1999/xlink"
   xmlns:sodipodi="http://sodipodi.sourceforge.net/DTD/sodipodi-0.dtd"
   xmlns:inkscape="http://www.inkscape.org/namespaces/inkscape"
   width="210mm"
   height="297mm"
   viewBox="0 0 210 297"
   version="1.1"
   id="svg8"
   inkscape:version="1.0.2-2 (e86c870879, 2021-01-15)"
   sodipodi:docname="Person_Fall_2.svg"
   inkscape:export-filename="C:\Users\Nathan\Documents\LDJam\Originals\Person_Fall_2.png"
   inkscape:export-xdpi="56.88168"
   inkscape:export-ydpi="56.88168">
  <defs
     id="defs2">
    <linearGradient
       inkscape:collect="always"
       id="linearGradient924">
      <stop
         style="stop-color:#b1b1b1;stop-opacity:1"
         offset="0"
         id="stop920" />
      <stop
         style="stop-color:#ffffff;stop-opacity:1"
         offset="1"
         id="stop922" />
    </linearGradient>
    <linearGradient
       inkscape:collect="always"
       id="linearGradient995">
      <stop
         style="stop-color:#f64bf4;stop-opacity:1"
         offset="0"
         id="stop991" />
      <stop
         style="stop-color:#f8b0ef;stop-opacity:1"
         offset="1"
         id="stop993" />
    </linearGradient>
    <linearGradient
       inkscape:collect="always"
       id="linearGradient937">
      <stop
         style="stop-color:#9afff7;stop-opacity:1"
         offset="0"
         id="stop933" />
      <stop
         style="stop-color:#ffffff;stop-opacity:1"
         offset="1"
         id="stop935" />
    </linearGradient>
    <linearGradient
       inkscape:collect="always"
       id="linearGradient923">
      <stop
         style="stop-color:#96e6e8;stop-opacity:1"
         offset="0"
         id="stop919" />
      <stop
         style="stop-color:#ffffff;stop-opacity:1"
         offset="1"
         id="stop921" />
    </linearGradient>
    <linearGradient
       inkscape:collect="always"
       id="linearGradient853">
      <stop
         style="stop-color:#b789ed;stop-opacity:1"
         offset="0"
         id="stop849" />
      <stop
         style="stop-color:#e1e3f4;stop-opacity:1"
         offset="1"
         id="stop851" />
    </linearGradient>
    <linearGradient
       inkscape:collect="always"
       xlink:href="#linearGradient853"
       id="linearGradient855"
       x1="19.644312"
       y1="41.69405"
       x2="41.2939"
       y2="64.350449"
       gradientUnits="userSpaceOnUse"
       gradientTransform="rotate(-90,43.238092,33.110345)" />
    <linearGradient
       inkscape:collect="always"
       xlink:href="#linearGradient923"
       id="linearGradient917"
       x1="17.84024"
       y1="71.427773"
       x2="31.070084"
       y2="75.169556"
       gradientUnits="userSpaceOnUse"
       gradientTransform="rotate(-105,42.758435,37.661621)" />
    <linearGradient
       inkscape:collect="always"
       xlink:href="#linearGradient937"
       id="linearGradient931"
       x1="29.33283"
       y1="73.499123"
       x2="47.707611"
       y2="75.704094"
       gradientUnits="userSpaceOnUse"
       gradientTransform="rotate(-115,46.345332,40.713859)" />
    <radialGradient
       inkscape:collect="always"
       xlink:href="#linearGradient995"
       id="radialGradient989"
       cx="9.0674334"
       cy="85.269203"
       fx="9.0674334"
       fy="85.269203"
       r="6.7531328"
       gradientTransform="matrix(-0.62801151,0.00736753,-0.00775389,-0.66094217,104.41893,115.66722)"
       gradientUnits="userSpaceOnUse" />
    <radialGradient
       inkscape:collect="always"
       xlink:href="#linearGradient995"
       id="radialGradient989-7"
       cx="9.0674334"
       cy="85.269203"
       fx="9.0674334"
       fy="85.269203"
       r="6.7531328"
       gradientTransform="matrix(-0.62502761,-0.00796468,-0.00771705,0.71451177,104.38179,-26.300113)"
       gradientUnits="userSpaceOnUse" />
    <pattern
       id="EMFhbasepattern"
       patternUnits="userSpaceOnUse"
       width="6"
       height="6"
       x="0"
       y="0" />
    <linearGradient
       inkscape:collect="always"
       xlink:href="#linearGradient853"
       id="linearGradient900"
       x1="12.189403"
       y1="25.389629"
       x2="40.89447"
       y2="32.50568"
       gradientUnits="userSpaceOnUse"
       gradientTransform="rotate(-50,39.248216,6.3319452)" />
    <radialGradient
       inkscape:collect="always"
       xlink:href="#linearGradient924"
       id="radialGradient926"
       cx="8.5517111"
       cy="24.851934"
       fx="8.5517111"
       fy="24.851934"
       r="3.7703122"
       gradientUnits="userSpaceOnUse"
       gradientTransform="matrix(1.9673783,-0.12251412,0.11185631,1.7962314,-10.646062,-7.3276509)" />
  </defs>
  <sodipodi:namedview
     id="base"
     pagecolor="#ffffff"
     bordercolor="#666666"
     borderopacity="1.0"
     inkscape:pageopacity="0.0"
     inkscape:pageshadow="2"
     inkscape:zoom="2.8"
     inkscape:cx="327.11525"
     inkscape:cy="122.61677"
     inkscape:document-units="mm"
     inkscape:current-layer="layer1"
     inkscape:document-rotation="0"
     showgrid="false"
     inkscape:window-width="2005"
     inkscape:window-height="1241"
     inkscape:window-x="437"
     inkscape:window-y="45"
     inkscape:window-maximized="0" />
  <metadata
     id="metadata5">
    <rdf:RDF>
      <cc:Work
         rdf:about="">
        <dc:format>image/svg+xml</dc:format>
        <dc:type
           rdf:resource="http://purl.org/dc/dcmitype/StillImage" />
        <dc:title></dc:title>
      </cc:Work>
    </rdf:RDF>
  </metadata>
  <g
     inkscape:label="Layer 1"
     inkscape:groupmode="layer"
     id="layer1">
    <ellipse
       style="opacity:1;fill:#efc473;fill-opacity:1;stroke:#000000;stroke-width:0.156917"
       id="path841-2-6"
       cx="-14.29313"
       cy="69.078041"
       rx="3.8835232"
       ry="3.8042679"
       transform="rotate(-90)" />
    <ellipse
       style="opacity:1;fill:#efc473;fill-opacity:1;stroke:#000000;stroke-width:0.156917"
       id="path841-2"
       cx="-52.152546"
       cy="44.85939"
       rx="3.8835232"
       ry="3.8042679"
       transform="rotate(-90)" />
    <g
       id="g980"
       transform="matrix(0.96592583,-0.25881905,-0.26022902,-0.9711879,15.610767,120.68579)"
       style="opacity:1">
      <rect
         style="opacity:1;fill:#efc473;fill-opacity:1;stroke:#000000;stroke-width:0.266462"
         id="rect997"
         width="4.5417023"
         height="7.6152997"
         x="-55.572662"
         y="91.250351"
         transform="rotate(-90)" />
      <path
         style="opacity:1;fill:url(#radialGradient989);fill-opacity:1;stroke:#000000;stroke-width:0.264583px;stroke-linecap:butt;stroke-linejoin:miter;stroke-opacity:1"
         d="m 100.21871,49.420092 c 0.20045,12.962572 0.18374,12.227581 0.18374,12.227581 0,0 -4.476761,-0.200452 -4.543579,-3.274052 -0.06682,-3.073599 3.006783,-2.271791 3.006783,-2.271791 L 98.16407,50.138379 Z"
         id="path981"
         sodipodi:nodetypes="ccsccc" />
    </g>
    <g
       id="g976"
       transform="rotate(-25,72.542806,46.317552)"
       style="opacity:1">
      <rect
         style="opacity:1;fill:#efc473;fill-opacity:1;stroke:#000000;stroke-width:0.266462"
         id="rect997-3"
         width="4.5417023"
         height="7.6152997"
         x="-43.206078"
         y="92.046799"
         transform="rotate(-90)" />
      <path
         style="opacity:1;fill:url(#radialGradient989-7);fill-opacity:1;stroke:#000000;stroke-width:0.274442px;stroke-linecap:butt;stroke-linejoin:miter;stroke-opacity:1"
         d="m 100.20152,45.316388 c 0.1995,-14.013193 0.18288,-13.218631 0.18288,-13.218631 0,0 -4.455496,0.216698 -4.521997,3.539414 -0.0665,3.322716 2.992497,2.455922 2.992497,2.455922 l -0.69825,6.44679 z"
         id="path981-7"
         sodipodi:nodetypes="ccsccc" />
    </g>
    <path
       style="opacity:1;fill:url(#linearGradient931);fill-opacity:1;stroke:#000000;stroke-width:0.264583px;stroke-linecap:butt;stroke-linejoin:miter;stroke-opacity:1"
       d="m 76.583333,45.415996 -6.104471,-8.244125 c 0,0 7.841814,-5.282053 13.255673,-7.407006 2.492748,-0.978409 4.063797,-1.911068 4.844405,-0.237047 2.475966,5.309724 4.384354,7.51627 2.244346,8.839608 -3.376454,2.087932 -14.239953,7.04857 -14.239953,7.04857 z"
       id="path847"
       sodipodi:nodetypes="ccsssc" />
    <path
       style="opacity:1;fill:url(#linearGradient917);fill-opacity:1;stroke:#000000;stroke-width:0.264583px;stroke-linecap:butt;stroke-linejoin:miter;stroke-opacity:1"
       d="m 74.588042,53.57345 c 0,0 12.391476,-1.288963 15.139413,-2.371827 1.068553,-0.421078 2.334906,-0.926413 3.171894,-2.117025 0.927929,-1.319975 -0.269611,-5.782988 -0.946303,-8.41839 -0.882584,-3.437269 -20.761628,4.237008 -18.212632,2.622233 z"
       id="path845"
       sodipodi:nodetypes="cssscc" />
    <path
       style="opacity:1;fill:url(#linearGradient855);fill-opacity:1;stroke:#000000;stroke-width:0.264583px;stroke-linecap:butt;stroke-linejoin:miter;stroke-opacity:1"
       d="m 52.360335,44.359997 2.080771,-2.559934 c 0,0 2.025274,0.05222 4.611211,-1.34911 0.971376,-0.526395 3.61142,-3.423586 3.914775,-5.776463 1.640721,-12.72575 3.154771,-17.873095 3.154771,-17.873095 l 5.857818,0.355384 c 0,0 -4.096155,8.710119 -1.920492,14.12886 l 4.053224,1.115478 c 2.032726,0.559422 3.992354,0.916806 3.992354,0.916806 0.333572,3.742865 0.181999,3.336628 0.05578,5.913304 -0.822472,4.958228 -0.24111,5.881796 -1.032651,11.180461 -1.394072,4.203691 -0.964555,4.314897 -2.574962,4.724702 -2.201685,0.0099 -3.118687,-1.607634 -4.978406,-2.939543 -2.251468,-1.612473 -6.244213,-6.16286 -9.198221,-4.668514 -5.422641,1.597909 -12.464332,7.48667 -12.508029,6.802826 0.208145,-2.471416 -3.213614,-6.197805 -3.213614,-6.197805 2.816417,-1.884588 4.61061,-2.029114 7.705671,-3.773357 z"
       id="path843"
       sodipodi:nodetypes="ccsscccsccccscccc" />
    <ellipse
       style="opacity:1;fill:#efc473;fill-opacity:1;stroke:#000000;stroke-width:0.379024"
       id="path841"
       cx="-32.341213"
       cy="54.663334"
       rx="9.3803835"
       ry="9.1889477"
       transform="rotate(-90)" />
    <path
       style="opacity:1;fill:url(#linearGradient900);fill-opacity:1;stroke:#000000;stroke-width:0.264583px;stroke-linecap:butt;stroke-linejoin:miter;stroke-opacity:1"
       d="m 55.310873,28.741432 c 0,0 4.384957,-5.173811 4.085503,-6.428153 -0.299452,-1.254347 -6.340407,-3.103836 -10.949264,-0.432374 -2.329185,1.350081 -7.34325,1.305907 -10.080664,-0.323084 -2.266903,-1.348997 -5.282311,-8.417123 -5.282311,-8.417123 0.0389,12.027255 0.211743,13.496379 3.520241,17.978417 1.380518,1.820502 6.691237,5.365235 8.962297,7.675759 1.429469,-1.289679 2.077209,-1.80788 2.904662,-2.578074 1.64655,-1.681899 1.528616,-1.352728 2.927023,-2.864591 1.947708,-2.244694 3.441278,-3.983123 3.912514,-4.610777 z"
       id="path69"
       sodipodi:nodetypes="csssccccccc" />
    <circle
       style="opacity:1;fill:url(#radialGradient926);fill-opacity:1;fill-rule:evenodd;stroke:#000000;stroke-width:0.264583;stroke-opacity:1"
       id="path917"
       cx="9.9976635"
       cy="35.225037"
       r="3.6380208"
       transform="rotate(-50)" />
  </g>
</svg>
