<?xml version="1.0" encoding="UTF-8" standalone="no"?>
<svg
   xmlns:dc="http://purl.org/dc/elements/1.1/"
   xmlns:cc="http://creativecommons.org/ns#"
   xmlns:rdf="http://www.w3.org/1999/02/22-rdf-syntax-ns#"
   xmlns:svg="http://www.w3.org/2000/svg"
   xmlns="http://www.w3.org/2000/svg"
   xmlns:xlink="http://www.w3.org/1999/xlink"
   xmlns:sodipodi="http://sodipodi.sourceforge.net/DTD/sodipodi-0.dtd"
   xmlns:inkscape="http://www.inkscape.org/namespaces/inkscape"
   width="210mm"
   height="297mm"
   viewBox="0 0 210 297"
   version="1.1"
   id="svg8"
   inkscape:version="1.0.2-2 (e86c870879, 2021-01-15)"
   sodipodi:docname="Person_Stand.svg">
  <defs
     id="defs2">
    <linearGradient
       inkscape:collect="always"
       id="linearGradient924">
      <stop
         style="stop-color:#b1b1b1;stop-opacity:1"
         offset="0"
         id="stop920" />
      <stop
         style="stop-color:#ffffff;stop-opacity:1"
         offset="1"
         id="stop922" />
    </linearGradient>
    <linearGradient
       inkscape:collect="always"
       id="linearGradient995">
      <stop
         style="stop-color:#f64bf4;stop-opacity:1"
         offset="0"
         id="stop991" />
      <stop
         style="stop-color:#f8b0ef;stop-opacity:1"
         offset="1"
         id="stop993" />
    </linearGradient>
    <linearGradient
       inkscape:collect="always"
       id="linearGradient937">
      <stop
         style="stop-color:#9afff7;stop-opacity:1"
         offset="0"
         id="stop933" />
      <stop
         style="stop-color:#ffffff;stop-opacity:1"
         offset="1"
         id="stop935" />
    </linearGradient>
    <linearGradient
       inkscape:collect="always"
       id="linearGradient923">
      <stop
         style="stop-color:#96e6e8;stop-opacity:1"
         offset="0"
         id="stop919" />
      <stop
         style="stop-color:#ffffff;stop-opacity:1"
         offset="1"
         id="stop921" />
    </linearGradient>
    <linearGradient
       inkscape:collect="always"
       id="linearGradient853">
      <stop
         style="stop-color:#b789ed;stop-opacity:1"
         offset="0"
         id="stop849" />
      <stop
         style="stop-color:#e1e3f4;stop-opacity:1"
         offset="1"
         id="stop851" />
    </linearGradient>
    <linearGradient
       inkscape:collect="always"
       xlink:href="#linearGradient853"
       id="linearGradient855"
       x1="19.644312"
       y1="41.69405"
       x2="41.2939"
       y2="64.350449"
       gradientUnits="userSpaceOnUse" />
    <linearGradient
       inkscape:collect="always"
       xlink:href="#linearGradient923"
       id="linearGradient917"
       x1="17.84024"
       y1="71.427773"
       x2="31.070084"
       y2="75.169556"
       gradientUnits="userSpaceOnUse" />
    <linearGradient
       inkscape:collect="always"
       xlink:href="#linearGradient937"
       id="linearGradient931"
       x1="29.33283"
       y1="73.499123"
       x2="47.707611"
       y2="75.704094"
       gradientUnits="userSpaceOnUse" />
    <radialGradient
       inkscape:collect="always"
       xlink:href="#linearGradient995"
       id="radialGradient989"
       cx="9.0674334"
       cy="85.269203"
       fx="9.0674334"
       fy="85.269203"
       r="6.7531328"
       gradientTransform="matrix(-0.00736753,-0.62801151,0.66094217,-0.00775389,-39.318787,94.291187)"
       gradientUnits="userSpaceOnUse" />
    <radialGradient
       inkscape:collect="always"
       xlink:href="#linearGradient995"
       id="radialGradient989-7"
       cx="9.0674334"
       cy="85.269203"
       fx="9.0674334"
       fy="85.269203"
       r="6.7531328"
       gradientTransform="matrix(0.00796468,-0.62502761,-0.71451177,-0.00771705,102.64855,94.254047)"
       gradientUnits="userSpaceOnUse" />
    <pattern
       id="EMFhbasepattern"
       patternUnits="userSpaceOnUse"
       width="6"
       height="6"
       x="0"
       y="0" />
    <linearGradient
       inkscape:collect="always"
       xlink:href="#linearGradient853"
       id="linearGradient900"
       x1="12.189403"
       y1="25.389629"
       x2="40.89447"
       y2="32.50568"
       gradientUnits="userSpaceOnUse" />
    <radialGradient
       inkscape:collect="always"
       xlink:href="#linearGradient924"
       id="radialGradient926"
       cx="8.5517111"
       cy="24.851934"
       fx="8.5517111"
       fy="24.851934"
       r="3.7703122"
       gradientUnits="userSpaceOnUse"
       gradientTransform="matrix(1.9673783,-0.12251412,0.11185631,1.7962314,-11.052584,-18.740185)" />
  </defs>
  <sodipodi:namedview
     id="base"
     pagecolor="#ffffff"
     bordercolor="#666666"
     borderopacity="1.0"
     inkscape:pageopacity="0.0"
     inkscape:pageshadow="2"
     inkscape:zoom="1.979899"
     inkscape:cx="74.605888"
     inkscape:cy="206.83598"
     inkscape:document-units="mm"
     inkscape:current-layer="layer1"
     inkscape:document-rotation="0"
     showgrid="false"
     inkscape:window-width="1575"
     inkscape:window-height="1226"
     inkscape:window-x="437"
     inkscape:window-y="45"
     inkscape:window-maximized="0" />
  <metadata
     id="metadata5">
    <rdf:RDF>
      <cc:Work
         rdf:about="">
        <dc:format>image/svg+xml</dc:format>
        <dc:type
           rdf:resource="http://purl.org/dc/dcmitype/StillImage" />
        <dc:title />
      </cc:Work>
    </rdf:RDF>
  </metadata>
  <g
     inkscape:label="Layer 1"
     inkscape:groupmode="layer"
     id="layer1">
    <rect
       style="fill:#efc473;fill-opacity:1;stroke:#000000;stroke-width:0.266462"
       id="rect997-3"
       width="4.5417023"
       height="7.6152997"
       x="33.142361"
       y="81.919052" />
    <rect
       style="fill:#efc473;fill-opacity:1;stroke:#000000;stroke-width:0.266462"
       id="rect997"
       width="4.5417023"
       height="7.6152997"
       x="20.775774"
       y="81.122604" />
    <ellipse
       style="fill:#efc473;fill-opacity:1;stroke:#000000;stroke-width:0.156917"
       id="path841-2-6"
       cx="45.235367"
       cy="62.541069"
       rx="3.8835232"
       ry="3.8042679" />
    <ellipse
       style="fill:#efc473;fill-opacity:1;stroke:#000000;stroke-width:0.156917"
       id="path841-2"
       cx="13.234589"
       cy="62.323906"
       rx="3.8835232"
       ry="3.8042679" />
    <path
       style="fill:url(#linearGradient931);stroke:#000000;stroke-width:0.264583px;stroke-linecap:butt;stroke-linejoin:miter;stroke-opacity:1;fill-opacity:1"
       d="m 29.304619,66.131588 10.051576,-2.048412 c 0,0 1.473071,9.339388 1.110937,15.144055 -0.166741,2.67269 0.01458,4.490704 -1.832497,4.490704 -5.858632,0 -8.664962,0.79706 -8.959907,-1.701712 C 29.20937,78.073718 29.304619,66.131588 29.304619,66.131588 Z"
       id="path847"
       sodipodi:nodetypes="ccsssc" />
    <path
       style="fill:url(#linearGradient917);stroke:#000000;stroke-width:0.264583px;stroke-linecap:butt;stroke-linejoin:miter;stroke-opacity:1;fill-opacity:1"
       d="m 19.150681,64.288377 c 0,0 -1.962108,12.302855 -1.62736,15.237424 0.130169,1.141127 0.290528,2.495119 1.223943,3.611741 1.034833,1.237946 5.655718,1.236323 8.376462,1.264781 3.548577,0.03712 1.280869,-21.150811 2.180893,-18.270735 z"
       id="path845"
       sodipodi:nodetypes="cssscc" />
    <path
       style="fill:url(#linearGradient855);fill-opacity:1;stroke:#000000;stroke-width:0.264583px;stroke-linecap:butt;stroke-linejoin:miter;stroke-opacity:1"
       d="m 29.065561,43.598342 c 1.997716,-0.05649 4.880348,-0.4476 6.891628,-2.499682 0,0 -0.28448,1.202265 1.709489,2.175264 2.260636,1.103126 2.936677,2.333831 4.561907,4.233235 3.323445,3.884103 5.412207,12.361213 5.412207,12.361213 l -6.214015,2.739515 c 0,0 -6.770405,-14.458394 -4.944487,-10.623965 2.004522,4.209496 4.209496,13.630747 4.209496,13.630747 -3.742865,0.333572 -5.628108,1.150566 -11.228594,1.000716 -3.666456,0.01551 -7.933973,-0.239193 -11.756586,-1.802527 0,0 6.975138,-17.295037 4.07586,-11.693041 -3.942225,7.617183 -5.078121,9.554886 -5.078121,9.554886 l -6.414468,-2.939964 c 0,0 0.392217,-2.652359 1.388498,-5.390641 0.946853,-2.602431 2.825471,-6.352075 6.463902,-9.292715 1.318886,-1.065945 2.726014,-1.909182 3.310037,-2.874833 0.399535,-0.66061 0.302305,-2.070841 1.131961,-1.31772 1.998945,1.814544 6.481286,2.739512 6.481286,2.739512 z"
       id="path843"
       sodipodi:nodetypes="csssccscccsccssssc" />
    <ellipse
       style="fill:#efc473;fill-opacity:1;stroke:#000000;stroke-width:0.379024"
       id="path841"
       cx="29.549637"
       cy="34.519218"
       rx="9.3803835"
       ry="9.1889477" />
    <path
       style="fill:url(#radialGradient989);fill-opacity:1;stroke:#000000;stroke-width:0.264583px;stroke-linecap:butt;stroke-linejoin:miter;stroke-opacity:1"
       d="m 26.928345,90.090958 c -12.962572,0.200451 -12.227581,0.183747 -12.227581,0.183747 0,0 0.200452,-4.476763 3.274052,-4.543581 3.073599,-0.06682 2.271791,3.006783 2.271791,3.006783 l 5.963451,-0.701584 z"
       id="path981"
       sodipodi:nodetypes="ccsccc" />
    <path
       style="fill:url(#radialGradient989-7);fill-opacity:1;stroke:#000000;stroke-width:0.274442px;stroke-linecap:butt;stroke-linejoin:miter;stroke-opacity:1"
       d="m 31.032049,90.073775 c 14.013193,0.199499 13.218631,0.182874 13.218631,0.182874 0,0 -0.216698,-4.455492 -3.539414,-4.521993 -3.322716,-0.0665 -2.455922,2.992497 -2.455922,2.992497 l -6.44679,-0.69825 z"
       id="path981-7"
       sodipodi:nodetypes="ccsccc" />
    <path
       style="fill:url(#linearGradient900);fill-opacity:1;stroke:#000000;stroke-width:0.264583px;stroke-linecap:butt;stroke-linejoin:miter;stroke-opacity:1"
       d="m 32.40643,33.041195 c 0,0 6.781965,0.03341 7.550362,-1.00226 0.768401,-1.035672 -4.741247,-20.363683 -14.131874,-20.412711 -6.080424,-0.03175 -8.488876,7.644568 -12.227581,10.958051 -2.833912,2.511597 -5.1449384,1.102486 -5.1449384,1.102486 0,0 0.4163774,2.452346 2.7729214,3.474505 1.377336,0.597425 4.677217,0.835216 6.314242,-0.835218 2.338487,-2.386211 2.939965,-3.274052 4.009043,-2.672695 1.069078,0.601356 -0.982178,5.118218 -3.107008,8.385581 1.906796,0.266048 2.72012,0.429152 3.842,0.567946 2.346791,0.180227 2.018825,0.301472 4.075858,0.400906 2.971498,0.04917 5.26326,0.07587 6.046975,0.03341 z"
       id="path69"
       sodipodi:nodetypes="cssscssscccc" />
    <circle
       style="fill:url(#radialGradient926);fill-rule:evenodd;stroke-width:0.264583;stroke:#000000;stroke-opacity:1;fill-opacity:1"
       id="path917"
       cx="9.5911455"
       cy="23.8125"
       r="3.6380208" />
  </g>
</svg>
