<?xml version="1.0" encoding="UTF-8" standalone="no"?>
<svg
   xmlns:osb="http://www.openswatchbook.org/uri/2009/osb"
   xmlns:dc="http://purl.org/dc/elements/1.1/"
   xmlns:cc="http://creativecommons.org/ns#"
   xmlns:rdf="http://www.w3.org/1999/02/22-rdf-syntax-ns#"
   xmlns:svg="http://www.w3.org/2000/svg"
   xmlns="http://www.w3.org/2000/svg"
   xmlns:xlink="http://www.w3.org/1999/xlink"
   xmlns:sodipodi="http://sodipodi.sourceforge.net/DTD/sodipodi-0.dtd"
   xmlns:inkscape="http://www.inkscape.org/namespaces/inkscape"
   width="210mm"
   height="297mm"
   viewBox="0 0 210 297"
   version="1.1"
   id="svg8"
   inkscape:version="1.0.2-2 (e86c870879, 2021-01-15)"
   sodipodi:docname="Spaceship.svg"
   inkscape:export-filename="C:\Users\Nathan\Documents\LDJam\Originals\Car.png"
   inkscape:export-xdpi="103.99"
   inkscape:export-ydpi="103.99">
  <defs
     id="defs2">
    <linearGradient
       inkscape:collect="always"
       id="linearGradient3300">
      <stop
         style="stop-color:#ffbd63;stop-opacity:1"
         offset="0"
         id="stop3296" />
      <stop
         style="stop-color:#ff1d1d;stop-opacity:1"
         offset="1"
         id="stop3298" />
    </linearGradient>
    <linearGradient
       inkscape:collect="always"
       id="linearGradient3232">
      <stop
         style="stop-color:#9ef0f1;stop-opacity:1"
         offset="0"
         id="stop3228" />
      <stop
         style="stop-color:#dedede;stop-opacity:1"
         offset="1"
         id="stop3230" />
    </linearGradient>
    <linearGradient
       inkscape:collect="always"
       id="linearGradient3172">
      <stop
         style="stop-color:#525252;stop-opacity:1"
         offset="0"
         id="stop3168" />
      <stop
         style="stop-color:#ffffff;stop-opacity:1"
         offset="1"
         id="stop3170" />
    </linearGradient>
    <linearGradient
       id="linearGradient2879"
       osb:paint="solid">
      <stop
         style="stop-color:#cd2020;stop-opacity:1;"
         offset="0"
         id="stop2877" />
    </linearGradient>
    <pattern
       id="EMFhbasepattern"
       patternUnits="userSpaceOnUse"
       width="6"
       height="6"
       x="0"
       y="0" />
    <linearGradient
       inkscape:collect="always"
       xlink:href="#linearGradient3172"
       id="linearGradient3174"
       x1="40.112724"
       y1="27.403275"
       x2="59.86198"
       y2="36.04948"
       gradientUnits="userSpaceOnUse" />
    <radialGradient
       inkscape:collect="always"
       xlink:href="#linearGradient3232"
       id="radialGradient3226"
       cx="32.222469"
       cy="18.804316"
       fx="32.222469"
       fy="18.804316"
       r="2.4473958"
       gradientUnits="userSpaceOnUse"
       gradientTransform="translate(17.481399,2.5985864)" />
    <radialGradient
       inkscape:collect="always"
       xlink:href="#linearGradient3232"
       id="radialGradient3226-9"
       cx="32.222469"
       cy="18.804316"
       fx="32.222469"
       fy="18.804316"
       r="2.4473958"
       gradientUnits="userSpaceOnUse"
       gradientTransform="translate(17.481398,9.4494036)" />
    <radialGradient
       inkscape:collect="always"
       xlink:href="#linearGradient3232"
       id="radialGradient3226-9-5"
       cx="32.222469"
       cy="18.804316"
       fx="32.222469"
       fy="18.804316"
       r="2.4473958"
       gradientUnits="userSpaceOnUse"
       gradientTransform="translate(17.528646,16.158481)" />
    <linearGradient
       inkscape:collect="always"
       xlink:href="#linearGradient3300"
       id="linearGradient3302"
       x1="49.325893"
       y1="44.695686"
       x2="49.534451"
       y2="38.656662"
       gradientUnits="userSpaceOnUse" />
  </defs>
  <sodipodi:namedview
     id="base"
     pagecolor="#ffffff"
     bordercolor="#666666"
     borderopacity="1.0"
     inkscape:pageopacity="0.0"
     inkscape:pageshadow="2"
     inkscape:zoom="15.839192"
     inkscape:cx="204.35264"
     inkscape:cy="162.63622"
     inkscape:document-units="mm"
     inkscape:current-layer="layer1"
     inkscape:document-rotation="0"
     showgrid="false"
     inkscape:window-width="2005"
     inkscape:window-height="1241"
     inkscape:window-x="437"
     inkscape:window-y="45"
     inkscape:window-maximized="0" />
  <metadata
     id="metadata5">
    <rdf:RDF>
      <cc:Work
         rdf:about="">
        <dc:format>image/svg+xml</dc:format>
        <dc:type
           rdf:resource="http://purl.org/dc/dcmitype/StillImage" />
        <dc:title></dc:title>
      </cc:Work>
    </rdf:RDF>
  </metadata>
  <g
     inkscape:label="Layer 1"
     inkscape:groupmode="layer"
     id="layer1">
    <path
       style="fill:url(#linearGradient3302);fill-opacity:1;stroke:#000000;stroke-width:0.264583px;stroke-linecap:butt;stroke-linejoin:miter;stroke-opacity:1"
       d="m 45.262646,39.404017 c -0.188987,3.165552 0.708708,5.008184 0.708708,5.008184 0,0 0.307445,-4.400916 0.566965,-4.819195 0.599895,-0.966876 0.671037,4.205477 1.143509,4.914181 0.472469,0.708705 0.595212,-4.425029 1.426908,-4.87979 0.501308,-0.274109 0.02459,5.505433 0.425306,4.746156 0.621907,-1.178384 1.351293,-4.22463 1.327091,-4.858339 0,0 0.532164,3.482851 0.449134,4.944234 -0.01798,0.316434 2.126117,-4.866442 1.795388,-5.102678 -0.330729,-0.236236 0.145468,5.678542 0.236233,5.008184 0.321232,-2.372508 1.170342,-3.129303 1.152137,-4.871944 -0.0182,-1.742639 -9.231378,-0.08899 -9.231378,-0.08899"
       id="path3294"
       sodipodi:nodetypes="ccsssssssssc" />
    <path
       style="fill:#5b51b3;fill-opacity:1;stroke:#000000;stroke-width:0.250329px;stroke-linecap:butt;stroke-linejoin:miter;stroke-opacity:1"
       d="m 56.228061,33.776122 c 0,0 3.002847,-1.559153 3.383488,0.377976 0.380642,1.937128 0.338349,9.591145 0.338349,9.591145 0,0 -1.015045,-5.149926 -2.875965,-4.015996 -1.860918,1.133927 -2.579908,-0.236236 -2.579908,-0.236236 z"
       id="path3176-5" />
    <path
       style="fill:#5b51b3;stroke:#000000;stroke-width:0.264583px;stroke-linecap:butt;stroke-linejoin:miter;stroke-opacity:1;fill-opacity:1"
       d="m 43.325521,33.687128 c 0,0 -3.354541,-1.559153 -3.779763,0.377976 -0.425223,1.937128 -0.377976,9.591145 -0.377976,9.591145 0,0 1.133927,-5.149926 3.212798,-4.015996 2.078869,1.133927 2.882067,-0.236236 2.882067,-0.236236 z"
       id="path3176" />
    <path
       style="fill:url(#linearGradient3174);stroke:#000000;stroke-width:0.264583px;stroke-linecap:butt;stroke-linejoin:miter;stroke-opacity:1;fill-opacity:1"
       d="m 44.884672,40.443452 c 0,0 9.638392,0.09449 9.874628,-0.09449 0.236234,-0.188989 2.36235,-7.795759 2.409597,-12.047993 0.04582,-4.123522 -2.733951,-9.760991 -4.535714,-12.425969 -0.884425,-1.308147 -2.551338,-2.834821 -2.551338,-2.834821 l -2.267858,2.787574 c 0,0 -5.291666,6.142113 -5.291666,12.756696 0,6.614584 1.606397,11.859003 2.362351,11.859003 z"
       id="path3166"
       sodipodi:nodetypes="csssccsc" />
    <circle
       style="opacity:1;fill:url(#radialGradient3226);fill-opacity:1;stroke:#464646;stroke-width:0.264583;stroke-opacity:1"
       id="path3208"
       cx="49.703873"
       cy="21.402903"
       r="2.3151042" />
    <circle
       style="fill:url(#radialGradient3226-9);fill-opacity:1;stroke:#464646;stroke-width:0.264583;stroke-opacity:1"
       id="path3208-3"
       cx="49.703865"
       cy="28.253719"
       r="2.3151042" />
    <circle
       style="fill:url(#radialGradient3226-9-5);fill-opacity:1;stroke:#464646;stroke-width:0.264583;stroke-opacity:1"
       id="path3208-3-3"
       cx="49.751118"
       cy="34.962795"
       r="2.3151042" />
  </g>
</svg>
